<svg width="251" height="54" viewBox="0 0 251 54" fill="none" xmlns="http://www.w3.org/2000/svg">
<path d="M35.426 6.48535H5.45015C2.44012 6.48535 0 8.90263 0 11.8845V41.5798C0 44.5616 2.44012 46.9789 5.45015 46.9789H35.426C38.436 46.9789 40.8761 44.5616 40.8761 41.5798V11.8845C40.8761 8.90263 38.436 6.48535 35.426 6.48535Z" fill="url(#paint0_linear_1353_41448)"/>
<path d="M16.5906 30.815L17.9809 29.4378C18.1087 29.4826 18.2422 29.5099 18.3776 29.5189C18.699 29.5189 19.0131 29.4245 19.2804 29.2476C19.5476 29.0707 19.7559 28.8193 19.8788 28.5251C20.0018 28.231 20.034 27.9073 19.9713 27.5951C19.9086 27.2828 19.7539 26.996 19.5266 26.7708C19.2993 26.5457 19.0098 26.3924 18.6946 26.3303C18.3794 26.2682 18.0526 26.3 17.7557 26.4219C17.4588 26.5437 17.205 26.75 17.0264 27.0148C16.8479 27.2795 16.7526 27.5907 16.7526 27.9091C16.7616 28.0432 16.7892 28.1754 16.8345 28.3021L15.4442 29.6793L9.51388 23.8063C9.42761 23.7176 9.32177 23.65 9.20467 23.6086C9.08757 23.5673 8.96239 23.5535 8.83897 23.5681C8.71555 23.5828 8.59724 23.6256 8.49333 23.6932C8.38943 23.7608 8.30275 23.8513 8.2401 23.9577C7.18072 25.912 6.78492 28.1523 7.11133 30.3469C7.43774 32.5414 8.469 34.5735 10.0524 36.142C11.6357 37.7105 13.6869 38.7321 15.9022 39.0555C18.1175 39.3788 20.379 38.9867 22.3518 37.9373C22.46 37.876 22.5523 37.7905 22.6212 37.6875C22.6901 37.5846 22.7338 37.4671 22.7486 37.3444C22.7635 37.2218 22.7491 37.0974 22.7068 36.9812C22.6644 36.8651 22.5952 36.7603 22.5046 36.6754L16.5906 30.815ZM17.6151 13.4212C17.5045 13.4151 17.3938 13.4313 17.2897 13.4689C17.1857 13.5065 17.0904 13.5646 17.0097 13.6398C16.929 13.715 16.8646 13.8057 16.8204 13.9063C16.7762 14.007 16.7532 14.1154 16.7526 14.2252V15.8079C16.7513 16.0125 16.8296 16.2098 16.9713 16.3588C17.1129 16.5078 17.3069 16.5972 17.5132 16.6083C20.6987 16.7989 23.703 18.1405 25.9567 20.3788C28.2104 22.6171 29.5571 25.5966 29.7415 28.7528C29.7544 28.9565 29.8451 29.1477 29.9952 29.2877C30.1452 29.4276 30.3434 29.5058 30.5494 29.5063H32.1872C32.2979 29.5057 32.4074 29.4828 32.509 29.439C32.6106 29.3952 32.7021 29.3315 32.778 29.2515C32.8539 29.1716 32.9126 29.0772 32.9506 28.9741C32.9885 28.871 33.0049 28.7614 32.9987 28.6518C32.7807 24.681 31.0896 20.93 28.2503 18.1189C25.411 15.3078 21.6235 13.6348 17.6151 13.4212Z" fill="white"/>
<path d="M17.6299 18.2488C17.5176 18.2406 17.4047 18.2554 17.2985 18.2924C17.1922 18.3294 17.0948 18.3877 17.0123 18.4636C16.9298 18.5396 16.864 18.6316 16.8191 18.7339C16.7741 18.8362 16.7509 18.9466 16.751 19.0582V20.6805C16.7509 20.8834 16.8284 21.0787 16.9678 21.2272C17.1073 21.3757 17.2983 21.4663 17.5025 21.4809C19.3987 21.6486 21.1748 22.472 22.5196 23.8069C23.8645 25.1418 24.6922 26.9029 24.8577 28.7817C24.8749 28.9825 24.9674 29.1697 25.1169 29.3065C25.2664 29.4433 25.4621 29.5197 25.6656 29.5208H27.3033C27.4158 29.5203 27.527 29.497 27.63 29.4522C27.733 29.4075 27.8257 29.3423 27.9022 29.2607C27.9788 29.1791 28.0377 29.0828 28.0752 28.9778C28.1127 28.8728 28.1281 28.7612 28.1204 28.6501C27.9078 25.9644 26.7349 23.442 24.8125 21.5366C22.8901 19.6312 20.3445 18.4679 17.6335 18.256L17.6299 18.2488Z" fill="white"/>
<path d="M80.492 22.864C80.492 24.328 80.156 25.672 79.484 26.896C78.812 28.096 77.78 29.068 76.388 29.812C74.996 30.556 73.268 30.928 71.204 30.928H67.388V40H61.232V14.728H71.204C73.22 14.728 74.924 15.076 76.316 15.772C77.708 16.468 78.752 17.428 79.448 18.652C80.144 19.876 80.492 21.28 80.492 22.864ZM70.736 26.032C71.912 26.032 72.788 25.756 73.364 25.204C73.94 24.652 74.228 23.872 74.228 22.864C74.228 21.856 73.94 21.076 73.364 20.524C72.788 19.972 71.912 19.696 70.736 19.696H67.388V26.032H70.736ZM82.8688 35.068C83.6848 34.42 84.0568 34.12 83.9848 34.168C86.3368 32.224 88.1848 30.628 89.5288 29.38C90.8968 28.132 92.0488 26.824 92.9848 25.456C93.9208 24.088 94.3888 22.756 94.3888 21.46C94.3888 20.476 94.1608 19.708 93.7048 19.156C93.2488 18.604 92.5648 18.328 91.6528 18.328C90.7408 18.328 90.0208 18.676 89.4928 19.372C88.9888 20.044 88.7368 21.004 88.7368 22.252H82.7968C82.8448 20.212 83.2768 18.508 84.0928 17.14C84.9328 15.772 86.0248 14.764 87.3688 14.116C88.7368 13.468 90.2488 13.144 91.9048 13.144C94.7608 13.144 96.9088 13.876 98.3488 15.34C99.8128 16.804 100.545 18.712 100.545 21.064C100.545 23.632 99.6688 26.02 97.9168 28.228C96.1648 30.412 93.9328 32.548 91.2208 34.636H100.941V39.64H82.8688V35.068ZM103.651 26.5C103.651 22.372 104.443 19.12 106.027 16.744C107.635 14.368 110.215 13.18 113.767 13.18C117.319 13.18 119.887 14.368 121.471 16.744C123.079 19.12 123.883 22.372 123.883 26.5C123.883 30.676 123.079 33.952 121.471 36.328C119.887 38.704 117.319 39.892 113.767 39.892C110.215 39.892 107.635 38.704 106.027 36.328C104.443 33.952 103.651 30.676 103.651 26.5ZM117.835 26.5C117.835 24.076 117.571 22.216 117.043 20.92C116.515 19.6 115.423 18.94 113.767 18.94C112.111 18.94 111.019 19.6 110.491 20.92C109.963 22.216 109.699 24.076 109.699 26.5C109.699 28.132 109.795 29.488 109.987 30.568C110.179 31.624 110.563 32.488 111.139 33.16C111.739 33.808 112.615 34.132 113.767 34.132C114.919 34.132 115.783 33.808 116.359 33.16C116.959 32.488 117.355 31.624 117.547 30.568C117.739 29.488 117.835 28.132 117.835 26.5ZM127.136 26.5C127.136 22.372 127.928 19.12 129.512 16.744C131.12 14.368 133.7 13.18 137.252 13.18C140.804 13.18 143.372 14.368 144.956 16.744C146.564 19.12 147.368 22.372 147.368 26.5C147.368 30.676 146.564 33.952 144.956 36.328C143.372 38.704 140.804 39.892 137.252 39.892C133.7 39.892 131.12 38.704 129.512 36.328C127.928 33.952 127.136 30.676 127.136 26.5ZM141.32 26.5C141.32 24.076 141.056 22.216 140.528 20.92C140 19.6 138.908 18.94 137.252 18.94C135.596 18.94 134.504 19.6 133.976 20.92C133.448 22.216 133.184 24.076 133.184 26.5C133.184 28.132 133.28 29.488 133.472 30.568C133.664 31.624 134.048 32.488 134.624 33.16C135.224 33.808 136.1 34.132 137.252 34.132C138.404 34.132 139.268 33.808 139.844 33.16C140.444 32.488 140.84 31.624 141.032 30.568C141.224 29.488 141.32 28.132 141.32 26.5ZM150.62 26.5C150.62 22.372 151.412 19.12 152.996 16.744C154.604 14.368 157.184 13.18 160.736 13.18C164.288 13.18 166.856 14.368 168.44 16.744C170.048 19.12 170.852 22.372 170.852 26.5C170.852 30.676 170.048 33.952 168.44 36.328C166.856 38.704 164.288 39.892 160.736 39.892C157.184 39.892 154.604 38.704 152.996 36.328C151.412 33.952 150.62 30.676 150.62 26.5ZM164.804 26.5C164.804 24.076 164.54 22.216 164.012 20.92C163.484 19.6 162.392 18.94 160.736 18.94C159.08 18.94 157.988 19.6 157.46 20.92C156.932 22.216 156.668 24.076 156.668 26.5C156.668 28.132 156.764 29.488 156.956 30.568C157.148 31.624 157.532 32.488 158.108 33.16C158.708 33.808 159.584 34.132 160.736 34.132C161.888 34.132 162.752 33.808 163.328 33.16C163.928 32.488 164.324 31.624 164.516 30.568C164.708 29.488 164.804 28.132 164.804 26.5ZM177.596 40.288C176.516 40.288 175.628 39.976 174.932 39.352C174.26 38.704 173.924 37.912 173.924 36.976C173.924 36.016 174.26 35.212 174.932 34.564C175.628 33.916 176.516 33.592 177.596 33.592C178.652 33.592 179.516 33.916 180.188 34.564C180.884 35.212 181.232 36.016 181.232 36.976C181.232 37.912 180.884 38.704 180.188 39.352C179.516 39.976 178.652 40.288 177.596 40.288ZM207.485 40H201.329L191.033 24.412V40H184.877V14.728H191.033L201.329 30.388V14.728H207.485V40ZM218.103 19.66V24.772H226.347V29.524H218.103V35.068H227.427V40H211.947V14.728H227.427V19.66H218.103ZM249.603 14.728V19.66H242.907V40H236.751V19.66H230.055V14.728H249.603Z" fill="#404040"/>
<defs>
<linearGradient id="paint0_linear_1353_41448" x1="20.4381" y1="6.48535" x2="20.4381" y2="46.9789" gradientUnits="userSpaceOnUse">
<stop stop-color="#F95E2E"/>
<stop offset="1" stop-color="#FC274F"/>
</linearGradient>
</defs>
</svg>
